<svg xmlns="http://www.w3.org/2000/svg" xmlns:xlink="http://www.w3.org/1999/xlink" version="1.1" width="256" height="256" viewBox="0 0 256 256" xml:space="preserve">

<defs>
</defs>
<g style="stroke: none; stroke-width: 0; stroke-dasharray: none; stroke-linecap: butt; stroke-linejoin: miter; stroke-miterlimit: 10; fill: none; fill-rule: nonzero; opacity: 1;" transform="translate(1.4065934065934016 1.4065934065934016) scale(2.81 2.81)" >
	<path d="M 35.55 41.912 c -4.335 0 -7.862 -3.527 -7.862 -7.861 c 0 -4.335 3.527 -7.862 7.862 -7.862 c 4.335 0 7.861 3.527 7.861 7.862 C 43.411 38.385 39.885 41.912 35.55 41.912 z M 35.55 28.188 c -3.232 0 -5.862 2.63 -5.862 5.862 c 0 3.232 2.63 5.862 5.862 5.862 c 3.232 0 5.862 -2.629 5.862 -5.862 C 41.412 30.818 38.782 28.188 35.55 28.188 z" style="stroke: none; stroke-width: 1; stroke-dasharray: none; stroke-linecap: butt; stroke-linejoin: miter; stroke-miterlimit: 10; fill: rgb(0,0,0); fill-rule: nonzero; opacity: 1;" transform=" matrix(1 0 0 1 0 0) " stroke-linecap="round" />
	<path d="M 28.688 63.811 c -0.241 0 -0.483 -0.087 -0.675 -0.263 c -0.407 -0.373 -0.435 -1.006 -0.062 -1.413 l 32.623 -35.622 c 0.374 -0.408 1.006 -0.434 1.413 -0.062 c 0.407 0.373 0.434 1.005 0.062 1.412 L 29.425 63.487 C 29.228 63.701 28.959 63.811 28.688 63.811 z" style="stroke: none; stroke-width: 1; stroke-dasharray: none; stroke-linecap: butt; stroke-linejoin: miter; stroke-miterlimit: 10; fill: rgb(0,0,0); fill-rule: nonzero; opacity: 1;" transform=" matrix(1 0 0 1 0 0) " stroke-linecap="round" />
	<path d="M 54.45 63.811 c -4.335 0 -7.862 -3.527 -7.862 -7.861 c 0 -4.335 3.527 -7.862 7.862 -7.862 c 4.334 0 7.861 3.527 7.861 7.862 C 62.311 60.284 58.784 63.811 54.45 63.811 z M 54.45 50.088 c -3.233 0 -5.862 2.629 -5.862 5.862 c 0 3.232 2.629 5.861 5.862 5.861 c 3.232 0 5.861 -2.629 5.861 -5.861 C 60.311 52.717 57.682 50.088 54.45 50.088 z" style="stroke: none; stroke-width: 1; stroke-dasharray: none; stroke-linecap: butt; stroke-linejoin: miter; stroke-miterlimit: 10; fill: rgb(0,0,0); fill-rule: nonzero; opacity: 1;" transform=" matrix(1 0 0 1 0 0) " stroke-linecap="round" />
	<path d="M 57.246 88.061 c -0.8 0 -1.613 -0.18 -2.382 -0.556 l -8.37 -4.092 c -0.933 -0.457 -2.051 -0.457 -2.986 0 l -8.369 4.092 c -2.633 1.285 -5.768 0.267 -7.142 -2.321 l -4.366 -8.23 c -0.495 -0.932 -1.376 -1.573 -2.416 -1.755 l -9.176 -1.61 c -2.885 -0.507 -4.823 -3.175 -4.414 -6.075 l 1.305 -9.224 c 0.148 -1.047 -0.188 -2.083 -0.923 -2.841 l -6.478 -6.696 c -2.037 -2.105 -2.037 -5.404 0 -7.509 l 6.478 -6.695 c 0.734 -0.759 1.071 -1.794 0.923 -2.84 l -1.305 -9.225 c -0.41 -2.9 1.529 -5.569 4.414 -6.074 l 9.176 -1.61 c 1.04 -0.183 1.921 -0.823 2.416 -1.756 l 4.366 -8.229 c 1.373 -2.588 4.51 -3.605 7.142 -2.32 l 8.369 4.091 c 0.949 0.464 2.037 0.464 2.986 0 l 0 0 l 8.369 -4.091 c 2.633 -1.285 5.768 -0.268 7.142 2.32 l 4.366 8.229 c 0.495 0.933 1.376 1.573 2.417 1.756 l 9.176 1.61 c 2.885 0.506 4.824 3.175 4.413 6.074 l -1.304 9.225 c -0.146 1.03 0.199 2.092 0.923 2.84 l 6.477 6.695 c 2.038 2.105 2.038 5.404 0 7.509 l -6.477 6.696 c -0.734 0.76 -1.071 1.795 -0.923 2.84 l 1.304 9.225 c 0.411 2.9 -1.528 5.568 -4.413 6.075 l -9.176 1.61 c -1.041 0.182 -1.922 0.822 -2.417 1.755 l -4.365 8.23 C 61.033 87.014 59.179 88.06 57.246 88.061 z M 45 81.064 c 0.809 0 1.618 0.185 2.372 0.553 l 8.369 4.092 c 1.657 0.811 3.633 0.168 4.496 -1.462 l 4.366 -8.23 c 0.787 -1.482 2.186 -2.498 3.838 -2.788 l 9.176 -1.61 c 1.817 -0.318 3.037 -1.999 2.779 -3.824 l -1.304 -9.225 c -0.235 -1.66 0.299 -3.304 1.466 -4.511 l 6.477 -6.696 c 1.283 -1.326 1.283 -3.402 0 -4.728 l -6.477 -6.695 c -1.167 -1.206 -1.701 -2.851 -1.466 -4.511 l 1.304 -9.225 c 0.259 -1.826 -0.962 -3.506 -2.779 -3.825 l -9.176 -1.61 c -1.652 -0.29 -3.051 -1.306 -3.837 -2.788 l -4.367 -8.229 c -0.864 -1.629 -2.838 -2.271 -4.496 -1.461 l -8.369 4.091 c -1.508 0.737 -3.236 0.737 -4.743 0 l -8.369 -4.091 c -1.656 -0.809 -3.632 -0.168 -4.497 1.461 l -4.366 8.229 c -0.786 1.482 -2.185 2.498 -3.837 2.788 l -9.176 1.61 c -1.817 0.319 -3.037 1.999 -2.779 3.825 l 1.305 9.224 c 0.235 1.661 -0.299 3.305 -1.466 4.511 l -6.478 6.695 c -1.282 1.325 -1.282 3.402 0 4.728 l 6.478 6.696 c 1.166 1.205 1.7 2.849 1.466 4.511 l -1.305 9.224 c -0.258 1.827 0.963 3.507 2.779 3.825 l 9.176 1.61 c 1.652 0.29 3.051 1.306 3.837 2.788 l 4.366 8.23 c 0.864 1.628 2.839 2.273 4.497 1.462 l 8.369 -4.092 C 43.382 81.249 44.191 81.064 45 81.064 z" style="stroke: none; stroke-width: 1; stroke-dasharray: none; stroke-linecap: butt; stroke-linejoin: miter; stroke-miterlimit: 10; fill: rgb(0,0,0); fill-rule: nonzero; opacity: 1;" transform=" matrix(1 0 0 1 0 0) " stroke-linecap="round" />
</g>
</svg>