<svg xmlns="http://www.w3.org/2000/svg" xmlns:xlink="http://www.w3.org/1999/xlink" version="1.1" width="256" height="256" viewBox="0 0 256 256" xml:space="preserve">

<defs>
</defs>
<g style="stroke: none; stroke-width: 0; stroke-dasharray: none; stroke-linecap: butt; stroke-linejoin: miter; stroke-miterlimit: 10; fill: none; fill-rule: nonzero; opacity: 1;" transform="translate(1.4065934065934016 1.4065934065934016) scale(2.81 2.81)" >
	<path d="M 86.633 66.325 h -2.819 c -0.553 0 -1 -0.447 -1 -1 s 0.447 -1 1 -1 h 2.819 c 0.754 0 1.367 -0.613 1.367 -1.367 V 48.174 c 0 -0.335 -0.122 -0.657 -0.345 -0.907 L 72.911 30.682 c -0.26 -0.292 -0.632 -0.459 -1.022 -0.459 H 57.903 v 34.103 h 12.604 c 0.553 0 1 0.447 1 1 s -0.447 1 -1 1 H 56.903 c -0.553 0 -1 -0.447 -1 -1 V 29.223 c 0 -0.552 0.447 -1 1 -1 h 14.985 c 0.961 0 1.879 0.412 2.517 1.13 l 14.744 16.584 C 89.698 46.554 90 47.348 90 48.174 v 14.784 C 90 64.814 88.489 66.325 86.633 66.325 z" style="stroke: none; stroke-width: 1; stroke-dasharray: none; stroke-linecap: butt; stroke-linejoin: miter; stroke-miterlimit: 10; fill: rgb(0,0,0); fill-rule: nonzero; opacity: 1;" transform=" matrix(1 0 0 1 0 0) " stroke-linecap="round" />
	<path d="M 56.903 66.325 H 28.647 c -0.552 0 -1 -0.447 -1 -1 s 0.448 -1 1 -1 h 27.256 V 48.274 H 2 V 62.16 c 0 1.174 0.718 2.165 1.568 2.165 h 11.783 c 0.552 0 1 0.447 1 1 s -0.448 1 -1 1 H 3.568 C 1.601 66.325 0 64.457 0 62.16 V 47.274 c 0 -0.553 0.448 -1 1 -1 h 55.903 c 0.553 0 1 0.447 1 1 v 18.051 C 57.903 65.878 57.456 66.325 56.903 66.325 z" style="stroke: none; stroke-width: 1; stroke-dasharray: none; stroke-linecap: butt; stroke-linejoin: miter; stroke-miterlimit: 10; fill: rgb(0,0,0); fill-rule: nonzero; opacity: 1;" transform=" matrix(1 0 0 1 0 0) " stroke-linecap="round" />
	<path d="M 77.16 72.643 c -4.22 0 -7.653 -3.434 -7.653 -7.653 s 3.434 -7.653 7.653 -7.653 s 7.653 3.434 7.653 7.653 S 81.38 72.643 77.16 72.643 z M 77.16 59.336 c -3.117 0 -5.653 2.536 -5.653 5.653 s 2.536 5.653 5.653 5.653 s 5.653 -2.536 5.653 -5.653 S 80.277 59.336 77.16 59.336 z" style="stroke: none; stroke-width: 1; stroke-dasharray: none; stroke-linecap: butt; stroke-linejoin: miter; stroke-miterlimit: 10; fill: rgb(0,0,0); fill-rule: nonzero; opacity: 1;" transform=" matrix(1 0 0 1 0 0) " stroke-linecap="round" />
	<path d="M 21.994 72.643 c -4.22 0 -7.653 -3.434 -7.653 -7.653 s 3.433 -7.653 7.653 -7.653 s 7.653 3.434 7.653 7.653 S 26.214 72.643 21.994 72.643 z M 21.994 59.336 c -3.117 0 -5.653 2.536 -5.653 5.653 s 2.536 5.653 5.653 5.653 s 5.653 -2.536 5.653 -5.653 S 25.111 59.336 21.994 59.336 z" style="stroke: none; stroke-width: 1; stroke-dasharray: none; stroke-linecap: butt; stroke-linejoin: miter; stroke-miterlimit: 10; fill: rgb(0,0,0); fill-rule: nonzero; opacity: 1;" transform=" matrix(1 0 0 1 0 0) " stroke-linecap="round" />
	<path d="M 89 48.274 H 68.19 c -1.719 0 -3.116 -1.398 -3.116 -3.117 v -7.872 c 0 -1.718 1.397 -3.116 3.116 -3.116 h 10.048 c 0.553 0 1 0.448 1 1 s -0.447 1 -1 1 H 68.19 c -0.615 0 -1.116 0.5 -1.116 1.116 v 7.872 c 0 0.616 0.501 1.117 1.116 1.117 H 89 c 0.553 0 1 0.447 1 1 S 89.553 48.274 89 48.274 z" style="stroke: none; stroke-width: 1; stroke-dasharray: none; stroke-linecap: butt; stroke-linejoin: miter; stroke-miterlimit: 10; fill: rgb(0,0,0); fill-rule: nonzero; opacity: 1;" transform=" matrix(1 0 0 1 0 0) " stroke-linecap="round" />
	<path d="M 16.481 48.274 H 1 c -0.552 0 -1 -0.447 -1 -1 V 31.792 c 0 -0.552 0.448 -1 1 -1 h 15.481 c 0.552 0 1 0.448 1 1 v 15.482 C 17.481 47.827 17.034 48.274 16.481 48.274 z M 2 46.274 h 13.481 V 32.792 H 2 V 46.274 z" style="stroke: none; stroke-width: 1; stroke-dasharray: none; stroke-linecap: butt; stroke-linejoin: miter; stroke-miterlimit: 10; fill: rgb(0,0,0); fill-rule: nonzero; opacity: 1;" transform=" matrix(1 0 0 1 0 0) " stroke-linecap="round" />
	<path d="M 33.986 48.274 H 16.481 c -0.552 0 -1 -0.447 -1 -1 V 37.46 c 0 -0.552 0.448 -1 1 -1 h 17.505 c 0.552 0 1 0.448 1 1 v 9.814 C 34.986 47.827 34.539 48.274 33.986 48.274 z M 17.481 46.274 h 15.505 V 38.46 H 17.481 V 46.274 z" style="stroke: none; stroke-width: 1; stroke-dasharray: none; stroke-linecap: butt; stroke-linejoin: miter; stroke-miterlimit: 10; fill: rgb(0,0,0); fill-rule: nonzero; opacity: 1;" transform=" matrix(1 0 0 1 0 0) " stroke-linecap="round" />
	<path d="M 56.903 48.274 H 33.986 c -0.552 0 -1 -0.447 -1 -1 v -14.24 c 0 -0.552 0.448 -1 1 -1 h 22.917 c 0.553 0 1 0.448 1 1 v 14.24 C 57.903 47.827 57.456 48.274 56.903 48.274 z M 34.986 46.274 h 20.917 v -12.24 H 34.986 V 46.274 z" style="stroke: none; stroke-width: 1; stroke-dasharray: none; stroke-linecap: butt; stroke-linejoin: miter; stroke-miterlimit: 10; fill: rgb(0,0,0); fill-rule: nonzero; opacity: 1;" transform=" matrix(1 0 0 1 0 0) " stroke-linecap="round" />
	<path d="M 56.903 34.034 H 33.986 c -0.552 0 -1 -0.448 -1 -1 V 18.358 c 0 -0.552 0.448 -1 1 -1 h 22.917 c 0.553 0 1 0.448 1 1 v 14.676 C 57.903 33.586 57.456 34.034 56.903 34.034 z M 34.986 32.034 h 20.917 V 19.358 H 34.986 V 32.034 z" style="stroke: none; stroke-width: 1; stroke-dasharray: none; stroke-linecap: butt; stroke-linejoin: miter; stroke-miterlimit: 10; fill: rgb(0,0,0); fill-rule: nonzero; opacity: 1;" transform=" matrix(1 0 0 1 0 0) " stroke-linecap="round" />
	<path d="M 33.986 38.46 H 16.481 c -0.552 0 -1 -0.448 -1 -1 V 25.696 c 0 -0.552 0.448 -1 1 -1 h 17.505 c 0.552 0 1 0.448 1 1 V 37.46 C 34.986 38.012 34.539 38.46 33.986 38.46 z M 17.481 36.46 h 15.505 v -9.764 H 17.481 V 36.46 z" style="stroke: none; stroke-width: 1; stroke-dasharray: none; stroke-linecap: butt; stroke-linejoin: miter; stroke-miterlimit: 10; fill: rgb(0,0,0); fill-rule: nonzero; opacity: 1;" transform=" matrix(1 0 0 1 0 0) " stroke-linecap="round" />
	<circle cx="77.16" cy="64.99" r="2.17" style="stroke: none; stroke-width: 1; stroke-dasharray: none; stroke-linecap: butt; stroke-linejoin: miter; stroke-miterlimit: 10; fill: rgb(0,0,0); fill-rule: nonzero; opacity: 1;" transform="  matrix(1 0 0 1 0 0) "/>
	<circle cx="21.990000000000002" cy="64.99" r="2.17" style="stroke: none; stroke-width: 1; stroke-dasharray: none; stroke-linecap: butt; stroke-linejoin: miter; stroke-miterlimit: 10; fill: rgb(0,0,0); fill-rule: nonzero; opacity: 1;" transform="  matrix(1 0 0 1 0 0) "/>
	<path d="M 11.934 37.85 c -0.1 0 -0.201 -0.015 -0.299 -0.046 l -2.894 -0.906 l -2.894 0.906 c -0.303 0.095 -0.635 0.04 -0.891 -0.148 s -0.408 -0.487 -0.408 -0.806 v -5.058 c 0 -0.552 0.448 -1 1 -1 h 6.386 c 0.552 0 1 0.448 1 1 v 5.058 c 0 0.318 -0.151 0.618 -0.408 0.806 C 12.352 37.784 12.144 37.85 11.934 37.85 z M 8.741 34.85 c 0.101 0 0.202 0.015 0.299 0.046 l 1.894 0.593 v -2.696 H 6.548 v 2.696 l 1.894 -0.593 C 8.539 34.865 8.64 34.85 8.741 34.85 z" style="stroke: none; stroke-width: 1; stroke-dasharray: none; stroke-linecap: butt; stroke-linejoin: miter; stroke-miterlimit: 10; fill: rgb(0,0,0); fill-rule: nonzero; opacity: 1;" transform=" matrix(1 0 0 1 0 0) " stroke-linecap="round" />
	<path d="M 28.427 31.753 c -0.1 0 -0.201 -0.015 -0.299 -0.046 l -2.894 -0.906 l -2.894 0.906 c -0.304 0.094 -0.635 0.041 -0.891 -0.148 c -0.256 -0.188 -0.408 -0.487 -0.408 -0.806 v -5.058 c 0 -0.552 0.448 -1 1 -1 h 6.386 c 0.552 0 1 0.448 1 1 v 5.058 c 0 0.318 -0.151 0.618 -0.408 0.806 C 28.845 31.687 28.637 31.753 28.427 31.753 z M 25.234 28.753 c 0.101 0 0.202 0.015 0.299 0.046 l 1.894 0.593 v -2.696 h -4.386 v 2.696 l 1.894 -0.593 C 25.032 28.769 25.133 28.753 25.234 28.753 z" style="stroke: none; stroke-width: 1; stroke-dasharray: none; stroke-linecap: butt; stroke-linejoin: miter; stroke-miterlimit: 10; fill: rgb(0,0,0); fill-rule: nonzero; opacity: 1;" transform=" matrix(1 0 0 1 0 0) " stroke-linecap="round" />
	<path d="M 28.427 43.518 c -0.1 0 -0.201 -0.015 -0.299 -0.046 l -2.894 -0.906 l -2.894 0.906 c -0.304 0.095 -0.635 0.04 -0.891 -0.148 s -0.408 -0.487 -0.408 -0.806 V 37.46 c 0 -0.552 0.448 -1 1 -1 h 6.386 c 0.552 0 1 0.448 1 1 v 5.058 c 0 0.318 -0.151 0.618 -0.408 0.806 C 28.845 43.451 28.637 43.518 28.427 43.518 z M 25.234 40.518 c 0.101 0 0.202 0.015 0.299 0.046 l 1.894 0.593 V 38.46 h -4.386 v 2.696 l 1.894 -0.593 C 25.032 40.533 25.133 40.518 25.234 40.518 z" style="stroke: none; stroke-width: 1; stroke-dasharray: none; stroke-linecap: butt; stroke-linejoin: miter; stroke-miterlimit: 10; fill: rgb(0,0,0); fill-rule: nonzero; opacity: 1;" transform=" matrix(1 0 0 1 0 0) " stroke-linecap="round" />
	<path d="M 48.638 24.416 c -0.101 0 -0.201 -0.015 -0.299 -0.046 l -2.894 -0.906 l -2.894 0.906 c -0.304 0.094 -0.635 0.041 -0.891 -0.148 c -0.256 -0.188 -0.408 -0.487 -0.408 -0.806 v -5.058 c 0 -0.552 0.448 -1 1 -1 h 6.385 c 0.553 0 1 0.448 1 1 v 5.058 c 0 0.318 -0.151 0.618 -0.408 0.806 C 49.056 24.349 48.848 24.416 48.638 24.416 z M 45.445 21.416 c 0.101 0 0.202 0.015 0.299 0.046 l 1.894 0.593 v -2.696 h -4.385 v 2.696 l 1.894 -0.593 C 45.243 21.431 45.344 21.416 45.445 21.416 z" style="stroke: none; stroke-width: 1; stroke-dasharray: none; stroke-linecap: butt; stroke-linejoin: miter; stroke-miterlimit: 10; fill: rgb(0,0,0); fill-rule: nonzero; opacity: 1;" transform=" matrix(1 0 0 1 0 0) " stroke-linecap="round" />
	<path d="M 48.638 39.092 c -0.101 0 -0.201 -0.015 -0.299 -0.046 l -2.894 -0.906 l -2.894 0.906 c -0.304 0.094 -0.635 0.04 -0.891 -0.148 c -0.256 -0.188 -0.408 -0.487 -0.408 -0.806 v -5.058 c 0 -0.552 0.448 -1 1 -1 h 6.385 c 0.553 0 1 0.448 1 1 v 5.058 c 0 0.318 -0.151 0.618 -0.408 0.806 C 49.056 39.025 48.848 39.092 48.638 39.092 z M 45.445 36.092 c 0.101 0 0.202 0.015 0.299 0.046 l 1.894 0.593 v -2.696 h -4.385 v 2.696 l 1.894 -0.593 C 45.243 36.107 45.344 36.092 45.445 36.092 z" style="stroke: none; stroke-width: 1; stroke-dasharray: none; stroke-linecap: butt; stroke-linejoin: miter; stroke-miterlimit: 10; fill: rgb(0,0,0); fill-rule: nonzero; opacity: 1;" transform=" matrix(1 0 0 1 0 0) " stroke-linecap="round" />
</g>
</svg>